REM DIRINDEX 1\5,1\2\6,1\2\7,1\3\8,1\3\9,1\4\10,1\4\11,1\4\12
REM DIRNAME cjc026,folder01,folder02,folder03,folder04,folder05,folder06,folder07,folder08,folder09,folder10,folder11
TITLE ""
FILE "EJE_DB3000_5th_4B_39.mp3" MP3
  TRACK 01 AUDIO
    TITLE "0:"
    INDEX 01 00:00:00
  TRACK 02 AUDIO
    TITLE "10:cjc026_09693"
    INDEX 01 00:00:08
  TRACK 03 AUDIO
    TITLE "0:"
    INDEX 01 00:01:19
  TRACK 04 AUDIO
    TITLE "11:cjc026_09694"
    INDEX 01 00:01:60
  TRACK 05 AUDIO
    TITLE "0:"
    INDEX 01 00:02:74
  TRACK 06 AUDIO
    TITLE "12:cjc026_09695"
    INDEX 01 00:03:31
  TRACK 07 AUDIO
    TITLE "0:"
    INDEX 01 00:04:45
  TRACK 08 AUDIO
    TITLE "10:cjc026_09696"
    INDEX 01 00:05:08
  TRACK 09 AUDIO
    TITLE "0:"
    INDEX 01 00:06:33
  TRACK 10 AUDIO
    TITLE "11:cjc026_09697"
    INDEX 01 00:06:71
  TRACK 11 AUDIO
    TITLE "0:"
    INDEX 01 00:08:07
  TRACK 12 AUDIO
    TITLE "12:cjc026_09698"
    INDEX 01 00:08:45
  TRACK 13 AUDIO
    TITLE "0:"
    INDEX 01 00:09:70
  TRACK 14 AUDIO
    TITLE "10:cjc026_09699"
    INDEX 01 00:10:33
  TRACK 15 AUDIO
    TITLE "0:"
    INDEX 01 00:11:49
  TRACK 16 AUDIO
    TITLE "11:cjc026_09700"
    INDEX 01 00:12:04
  TRACK 17 AUDIO
    TITLE "0:"
    INDEX 01 00:13:15
  TRACK 18 AUDIO
    TITLE "12:cjc026_09701"
    INDEX 01 00:13:53
  TRACK 19 AUDIO
    TITLE "0:"
    INDEX 01 00:14:67
  TRACK 20 AUDIO
    TITLE "10:cjc026_09702"
    INDEX 01 00:15:27
  TRACK 21 AUDIO
    TITLE "0:"
    INDEX 01 00:16:60
  TRACK 22 AUDIO
    TITLE "11:cjc026_09703"
    INDEX 01 00:17:21
  TRACK 23 AUDIO
    TITLE "0:"
    INDEX 01 00:19:19
  TRACK 24 AUDIO
    TITLE "12:cjc026_09704"
    INDEX 01 00:19:54
  TRACK 25 AUDIO
    TITLE "0:"
    INDEX 01 00:21:12
  TRACK 26 AUDIO
    TITLE "10:cjc026_09705"
    INDEX 01 00:21:50
  TRACK 27 AUDIO
    TITLE "0:"
    INDEX 01 00:22:61
  TRACK 28 AUDIO
    TITLE "11:cjc026_09706"
    INDEX 01 00:23:24
  TRACK 29 AUDIO
    TITLE "0:"
    INDEX 01 00:24:44
  TRACK 30 AUDIO
    TITLE "12:cjc026_09707"
    INDEX 01 00:25:06
  TRACK 31 AUDIO
    TITLE "0:"
    INDEX 01 00:26:18
  TRACK 32 AUDIO
    TITLE "10:cjc026_09708"
    INDEX 01 00:26:56
  TRACK 33 AUDIO
    TITLE "0:"
    INDEX 01 00:27:67
  TRACK 34 AUDIO
    TITLE "11:cjc026_09709"
    INDEX 01 00:28:27
  TRACK 35 AUDIO
    TITLE "0:"
    INDEX 01 00:29:49
  TRACK 36 AUDIO
    TITLE "12:cjc026_09710"
    INDEX 01 00:30:09
  TRACK 37 AUDIO
    TITLE "0:"
    INDEX 01 00:31:24
  TRACK 38 AUDIO
    TITLE "10:cjc026_09711"
    INDEX 01 00:31:59
  TRACK 39 AUDIO
    TITLE "0:"
    INDEX 01 00:33:00
  TRACK 40 AUDIO
    TITLE "11:cjc026_09712"
    INDEX 01 00:33:41
  TRACK 41 AUDIO
    TITLE "0:"
    INDEX 01 00:34:63
  TRACK 42 AUDIO
    TITLE "12:cjc026_09713"
    INDEX 01 00:35:23
  TRACK 43 AUDIO
    TITLE "0:"
    INDEX 01 00:36:43
  TRACK 44 AUDIO
    TITLE "10:cjc026_09714"
    INDEX 01 00:37:08
  TRACK 45 AUDIO
    TITLE "0:"
    INDEX 01 00:38:20
  TRACK 46 AUDIO
    TITLE "11:cjc026_09715"
    INDEX 01 00:38:60
  TRACK 47 AUDIO
    TITLE "0:"
    INDEX 01 00:40:02
  TRACK 48 AUDIO
    TITLE "12:cjc026_09716"
    INDEX 01 00:40:42
  TRACK 49 AUDIO
    TITLE "0:"
    INDEX 01 00:41:57
  TRACK 50 AUDIO
    TITLE "10:cjc026_09717"
    INDEX 01 00:42:19
  TRACK 51 AUDIO
    TITLE "0:"
    INDEX 01 00:43:55
  TRACK 52 AUDIO
    TITLE "11:cjc026_09718"
    INDEX 01 00:44:15
  TRACK 53 AUDIO
    TITLE "0:"
    INDEX 01 00:45:64
  TRACK 54 AUDIO
    TITLE "12:cjc026_09719"
    INDEX 01 00:46:27
  TRACK 55 AUDIO
    TITLE "0:"
    INDEX 01 00:47:63
  TRACK 56 AUDIO
    TITLE "10:cjc026_09720"
    INDEX 01 00:48:23
  TRACK 57 AUDIO
    TITLE "0:"
    INDEX 01 00:49:67
  TRACK 58 AUDIO
    TITLE "11:cjc026_09721"
    INDEX 01 00:50:24
  TRACK 59 AUDIO
    TITLE "0:"
    INDEX 01 00:52:74
  TRACK 60 AUDIO
    TITLE "12:cjc026_09722"
    INDEX 01 00:53:31
  TRACK 61 AUDIO
    TITLE "0:"
    INDEX 01 00:55:03
  TRACK 62 AUDIO
    TITLE "10:cjc026_09723"
    INDEX 01 00:55:38
  TRACK 63 AUDIO
    TITLE "0:"
    INDEX 01 00:56:57
  TRACK 64 AUDIO
    TITLE "11:cjc026_09724"
    INDEX 01 00:57:23
  TRACK 65 AUDIO
    TITLE "0:"
    INDEX 01 00:59:08
  TRACK 66 AUDIO
    TITLE "12:cjc026_09725"
    INDEX 01 00:59:43
  TRACK 67 AUDIO
    TITLE "0:"
    INDEX 01 01:00:63
  TRACK 68 AUDIO
    TITLE "10:cjc026_09726"
    INDEX 01 01:01:28
  TRACK 69 AUDIO
    TITLE "0:"
    INDEX 01 01:02:61
  TRACK 70 AUDIO
    TITLE "11:cjc026_09727"
    INDEX 01 01:03:21
  TRACK 71 AUDIO
    TITLE "0:"
    INDEX 01 01:04:49
  TRACK 72 AUDIO
    TITLE "12:cjc026_09728"
    INDEX 01 01:05:14
  TRACK 73 AUDIO
    TITLE "0:"
    INDEX 01 01:06:47
  TRACK 74 AUDIO
    TITLE "10:cjc026_09729"
    INDEX 01 01:07:07
  TRACK 75 AUDIO
    TITLE "0:"
    INDEX 01 01:08:48
  TRACK 76 AUDIO
    TITLE "11:cjc026_09730"
    INDEX 01 01:09:11
  TRACK 77 AUDIO
    TITLE "0:"
    INDEX 01 01:10:69
  TRACK 78 AUDIO
    TITLE "12:cjc026_09731"
    INDEX 01 01:11:31
  TRACK 79 AUDIO
    TITLE "0:"
    INDEX 01 01:12:67
